<svg xmlns="http://www.w3.org/2000/svg" viewBox="0 0 1920 1080" preserveAspectRatio="xMidYMid slice" width="1920" height="1080">
  <defs>
    <radialGradient id="dashGlow" cx="50%" cy="50%" r="70%">
      <stop offset="0%" stop-color="#1a0f3a" stop-opacity="0.35"/>
      <stop offset="60%" stop-color="#0a0514" stop-opacity="0"/>
    </radialGradient>
    <radialGradient id="dashCorner" cx="100%" cy="0%" r="60%">
      <stop offset="0%" stop-color="#7c3aed" stop-opacity="0.08"/>
      <stop offset="100%" stop-color="#7c3aed" stop-opacity="0"/>
    </radialGradient>
    <radialGradient id="dashCornerBL" cx="0%" cy="100%" r="50%">
      <stop offset="0%" stop-color="#a855f7" stop-opacity="0.06"/>
      <stop offset="100%" stop-color="#a855f7" stop-opacity="0"/>
    </radialGradient>
    <pattern id="dashDots" x="0" y="0" width="48" height="48" patternUnits="userSpaceOnUse">
      <circle cx="24" cy="24" r="0.7" fill="#a78bfa" fill-opacity="0.08"/>
    </pattern>
    <pattern id="dashHex" x="0" y="0" width="120" height="139" patternUnits="userSpaceOnUse">
      <path d="M60 2 L116 34 L116 104 L60 136 L4 104 L4 34 Z"
            fill="none" stroke="#8b5cf6" stroke-width="0.5" stroke-opacity="0.04"/>
    </pattern>
    <symbol id="pxHeart" viewBox="0 0 14 12">
      <g fill="currentColor">
        <rect x="2" y="1" width="2" height="2"/><rect x="4" y="1" width="2" height="2"/>
        <rect x="8" y="1" width="2" height="2"/><rect x="10" y="1" width="2" height="2"/>
        <rect x="0" y="3" width="2" height="2"/><rect x="2" y="3" width="2" height="2"/>
        <rect x="4" y="3" width="2" height="2"/><rect x="6" y="3" width="2" height="2"/>
        <rect x="8" y="3" width="2" height="2"/><rect x="10" y="3" width="2" height="2"/>
        <rect x="12" y="3" width="2" height="2"/>
        <rect x="0" y="5" width="2" height="2"/><rect x="2" y="5" width="2" height="2"/>
        <rect x="4" y="5" width="2" height="2"/><rect x="6" y="5" width="2" height="2"/>
        <rect x="8" y="5" width="2" height="2"/><rect x="10" y="5" width="2" height="2"/>
        <rect x="12" y="5" width="2" height="2"/>
        <rect x="2" y="7" width="2" height="2"/><rect x="4" y="7" width="2" height="2"/>
        <rect x="6" y="7" width="2" height="2"/><rect x="8" y="7" width="2" height="2"/>
        <rect x="10" y="7" width="2" height="2"/>
        <rect x="4" y="9" width="2" height="2"/><rect x="6" y="9" width="2" height="2"/>
        <rect x="8" y="9" width="2" height="2"/>
      </g>
    </symbol>
    <symbol id="pxStar" viewBox="0 0 12 12">
      <g fill="currentColor">
        <rect x="5" y="0" width="2" height="2"/>
        <rect x="5" y="2" width="2" height="2"/>
        <rect x="0" y="4" width="2" height="2"/><rect x="2" y="4" width="2" height="2"/>
        <rect x="4" y="4" width="2" height="2"/><rect x="6" y="4" width="2" height="2"/>
        <rect x="8" y="4" width="2" height="2"/><rect x="10" y="4" width="2" height="2"/>
        <rect x="2" y="6" width="2" height="2"/><rect x="4" y="6" width="2" height="2"/>
        <rect x="6" y="6" width="2" height="2"/><rect x="8" y="6" width="2" height="2"/>
        <rect x="2" y="8" width="2" height="2"/><rect x="8" y="8" width="2" height="2"/>
        <rect x="0" y="10" width="2" height="2"/><rect x="10" y="10" width="2" height="2"/>
      </g>
    </symbol>
    <symbol id="pxCoin" viewBox="0 0 12 12">
      <g fill="currentColor">
        <rect x="3" y="0" width="2" height="2"/><rect x="5" y="0" width="2" height="2"/><rect x="7" y="0" width="2" height="2"/>
        <rect x="1" y="2" width="2" height="2"/><rect x="9" y="2" width="2" height="2"/>
        <rect x="3" y="2" width="2" height="2"/><rect x="7" y="2" width="2" height="2"/>
        <rect x="1" y="4" width="2" height="2"/><rect x="9" y="4" width="2" height="2"/>
        <rect x="3" y="4" width="2" height="2"/><rect x="7" y="4" width="2" height="2"/>
        <rect x="1" y="6" width="2" height="2"/><rect x="9" y="6" width="2" height="2"/>
        <rect x="3" y="6" width="2" height="2"/><rect x="7" y="6" width="2" height="2"/>
        <rect x="1" y="8" width="2" height="2"/><rect x="9" y="8" width="2" height="2"/>
        <rect x="3" y="8" width="2" height="2"/><rect x="7" y="8" width="2" height="2"/>
        <rect x="3" y="10" width="2" height="2"/><rect x="5" y="10" width="2" height="2"/><rect x="7" y="10" width="2" height="2"/>
      </g>
    </symbol>
    <symbol id="pxMush" viewBox="0 0 14 14">
      <g fill="currentColor">
        <rect x="4" y="0" width="2" height="2"/><rect x="6" y="0" width="2" height="2"/><rect x="8" y="0" width="2" height="2"/>
        <rect x="2" y="2" width="2" height="2"/><rect x="4" y="2" width="2" height="2"/><rect x="6" y="2" width="2" height="2"/>
        <rect x="8" y="2" width="2" height="2"/><rect x="10" y="2" width="2" height="2"/>
        <rect x="0" y="4" width="2" height="2"/><rect x="2" y="4" width="2" height="2"/><rect x="4" y="4" width="2" height="2"/>
        <rect x="6" y="4" width="2" height="2"/><rect x="8" y="4" width="2" height="2"/><rect x="10" y="4" width="2" height="2"/>
        <rect x="12" y="4" width="2" height="2"/>
        <rect x="0" y="6" width="2" height="2"/><rect x="2" y="6" width="2" height="2"/><rect x="4" y="6" width="2" height="2"/>
        <rect x="6" y="6" width="2" height="2"/><rect x="8" y="6" width="2" height="2"/><rect x="10" y="6" width="2" height="2"/>
        <rect x="12" y="6" width="2" height="2"/>
        <rect x="4" y="8" width="2" height="2"/><rect x="6" y="8" width="2" height="2"/><rect x="8" y="8" width="2" height="2"/>
        <rect x="4" y="10" width="2" height="2"/><rect x="6" y="10" width="2" height="2"/><rect x="8" y="10" width="2" height="2"/>
        <rect x="4" y="12" width="2" height="2"/><rect x="8" y="12" width="2" height="2"/>
      </g>
    </symbol>
    <symbol id="pxGhost" viewBox="0 0 14 14">
      <g fill="currentColor">
        <rect x="4" y="0" width="2" height="2"/><rect x="6" y="0" width="2" height="2"/><rect x="8" y="0" width="2" height="2"/>
        <rect x="2" y="2" width="2" height="2"/><rect x="4" y="2" width="2" height="2"/><rect x="6" y="2" width="2" height="2"/>
        <rect x="8" y="2" width="2" height="2"/><rect x="10" y="2" width="2" height="2"/>
        <rect x="0" y="4" width="2" height="2"/><rect x="2" y="4" width="2" height="2"/><rect x="4" y="4" width="2" height="2"/>
        <rect x="6" y="4" width="2" height="2"/><rect x="8" y="4" width="2" height="2"/><rect x="10" y="4" width="2" height="2"/>
        <rect x="12" y="4" width="2" height="2"/>
        <rect x="0" y="6" width="2" height="2"/><rect x="2" y="6" width="2" height="2"/><rect x="4" y="6" width="2" height="2"/>
        <rect x="6" y="6" width="2" height="2"/><rect x="8" y="6" width="2" height="2"/><rect x="10" y="6" width="2" height="2"/>
        <rect x="12" y="6" width="2" height="2"/>
        <rect x="0" y="8" width="2" height="2"/><rect x="2" y="8" width="2" height="2"/><rect x="4" y="8" width="2" height="2"/>
        <rect x="6" y="8" width="2" height="2"/><rect x="8" y="8" width="2" height="2"/><rect x="10" y="8" width="2" height="2"/>
        <rect x="12" y="8" width="2" height="2"/>
        <rect x="0" y="10" width="2" height="2"/><rect x="2" y="10" width="2" height="2"/><rect x="4" y="10" width="2" height="2"/>
        <rect x="6" y="10" width="2" height="2"/><rect x="8" y="10" width="2" height="2"/><rect x="10" y="10" width="2" height="2"/>
        <rect x="12" y="10" width="2" height="2"/>
        <rect x="0" y="12" width="2" height="2"/><rect x="4" y="12" width="2" height="2"/>
        <rect x="6" y="12" width="2" height="2"/><rect x="10" y="12" width="2" height="2"/>
      </g>
    </symbol>
    <symbol id="pxSword" viewBox="0 0 14 14">
      <g fill="currentColor">
        <rect x="10" y="0" width="2" height="2"/><rect x="12" y="0" width="2" height="2"/>
        <rect x="8" y="2" width="2" height="2"/><rect x="10" y="2" width="2" height="2"/>
        <rect x="6" y="4" width="2" height="2"/><rect x="8" y="4" width="2" height="2"/>
        <rect x="4" y="6" width="2" height="2"/><rect x="6" y="6" width="2" height="2"/>
        <rect x="0" y="8" width="2" height="2"/><rect x="4" y="8" width="2" height="2"/>
        <rect x="2" y="10" width="2" height="2"/><rect x="4" y="10" width="2" height="2"/>
        <rect x="0" y="12" width="2" height="2"/>
      </g>
    </symbol>
    <symbol id="controller" viewBox="0 0 100 60">
      <g fill="none" stroke="currentColor" stroke-width="1.5" stroke-linecap="round" stroke-linejoin="round">
        <path d="M20 20 Q10 20 6 32 Q2 48 10 52 Q16 54 22 48 L30 40 L70 40 L78 48 Q84 54 90 52 Q98 48 94 32 Q90 20 80 20 Z"/>
        <rect x="16" y="28" width="3" height="8"/>
        <rect x="12" y="30" width="11" height="4"/>
        <circle cx="76" cy="28" r="2"/>
        <circle cx="82" cy="32" r="2"/>
        <circle cx="76" cy="36" r="2"/>
        <circle cx="70" cy="32" r="2"/>
        <rect x="44" y="30" width="4" height="1.5"/>
        <rect x="52" y="30" width="4" height="1.5"/>
      </g>
    </symbol>
    <symbol id="block" viewBox="0 0 60 60">
      <g fill="none" stroke="currentColor" stroke-width="1.2" stroke-linejoin="round">
        <polygon points="30,6 54,18 30,30 6,18"/>
        <polygon points="6,18 30,30 30,54 6,42"/>
        <polygon points="54,18 30,30 30,54 54,42"/>
      </g>
    </symbol>
    <symbol id="dpad" viewBox="0 0 30 30">
      <g fill="none" stroke="currentColor" stroke-width="1.2">
        <path d="M11 4 L19 4 L19 11 L26 11 L26 19 L19 19 L19 26 L11 26 L11 19 L4 19 L4 11 L11 11 Z"/>
      </g>
    </symbol>
    <symbol id="hpBar" viewBox="0 0 60 10">
      <g fill="none" stroke="currentColor" stroke-width="0.8">
        <rect x="0.5" y="0.5" width="59" height="9"/>
        <rect x="2" y="2" width="8" height="6" fill="currentColor"/>
        <rect x="11" y="2" width="8" height="6" fill="currentColor"/>
        <rect x="20" y="2" width="8" height="6" fill="currentColor"/>
        <rect x="29" y="2" width="8" height="6" fill="currentColor"/>
      </g>
    </symbol>
  </defs>

  <rect width="1920" height="1080" fill="#0a0514"/>
  <rect width="1920" height="1080" fill="url(#dashGlow)"/>
  <rect width="1920" height="1080" fill="url(#dashCorner)"/>
  <rect width="1920" height="1080" fill="url(#dashCornerBL)"/>
  <rect width="1920" height="1080" fill="url(#dashHex)"/>
  <rect width="1920" height="1080" fill="url(#dashDots)"/>

  <g color="#a78bfa" opacity="0.09">
    <use href="#pxHeart" x="140" y="90" width="28" height="24"/>
    <use href="#pxStar" x="480" y="70" width="22" height="22"/>
    <use href="#pxCoin" x="820" y="110" width="24" height="24"/>
    <use href="#pxMush" x="1280" y="80" width="26" height="26"/>
    <use href="#pxGhost" x="1640" y="100" width="26" height="26"/>
    <use href="#pxSword" x="1820" y="130" width="22" height="22"/>
  </g>
  <g color="#c4b5fd" opacity="0.07">
    <use href="#pxStar" x="60" y="280" width="18" height="18"/>
    <use href="#pxCoin" x="340" y="320" width="20" height="20"/>
    <use href="#pxGhost" x="720" y="290" width="24" height="24"/>
    <use href="#pxHeart" x="1080" y="310" width="22" height="19"/>
    <use href="#pxMush" x="1480" y="270" width="24" height="24"/>
    <use href="#pxSword" x="1780" y="330" width="20" height="20"/>
  </g>
  <g color="#a78bfa" opacity="0.06">
    <use href="#pxHeart" x="200" y="520" width="24" height="20"/>
    <use href="#pxGhost" x="1380" y="540" width="22" height="22"/>
    <use href="#pxCoin" x="1720" y="500" width="20" height="20"/>
  </g>
  <g color="#c4b5fd" opacity="0.07">
    <use href="#pxCoin" x="100" y="720" width="20" height="20"/>
    <use href="#pxMush" x="420" y="740" width="24" height="24"/>
    <use href="#pxStar" x="780" y="710" width="20" height="20"/>
    <use href="#pxSword" x="1180" y="750" width="22" height="22"/>
    <use href="#pxHeart" x="1540" y="720" width="24" height="20"/>
    <use href="#pxGhost" x="1820" y="740" width="22" height="22"/>
  </g>
  <g color="#a78bfa" opacity="0.09">
    <use href="#pxStar" x="240" y="940" width="22" height="22"/>
    <use href="#pxHeart" x="580" y="960" width="26" height="22"/>
    <use href="#pxMush" x="960" y="920" width="24" height="24"/>
    <use href="#pxSword" x="1340" y="960" width="22" height="22"/>
    <use href="#pxCoin" x="1680" y="940" width="24" height="24"/>
  </g>

  <g transform="translate(80, 180) rotate(-8)" color="#8b5cf6" opacity="0.07">
    <use href="#controller" width="140" height="84"/>
  </g>
  <g transform="translate(1680, 860) rotate(12)" color="#8b5cf6" opacity="0.07">
    <use href="#controller" width="160" height="96"/>
  </g>
  <g transform="translate(1300, 200) rotate(-15)" color="#8b5cf6" opacity="0.06">
    <use href="#controller" width="120" height="72"/>
  </g>

  <g color="#a78bfa" opacity="0.08">
    <use href="#block" x="1000" y="440" width="80" height="80"/>
    <use href="#block" x="540" y="140" width="50" height="50"/>
    <use href="#block" x="160" y="820" width="65" height="65"/>
    <use href="#block" x="1500" y="400" width="55" height="55"/>
    <use href="#block" x="880" y="860" width="45" height="45"/>
  </g>

  <g color="#c4b5fd" opacity="0.08">
    <use href="#dpad" x="400" y="480" width="36" height="36"/>
    <use href="#dpad" x="1600" y="160" width="32" height="32"/>
    <use href="#dpad" x="680" y="820" width="34" height="34"/>
  </g>

  <g color="#a78bfa" opacity="0.1">
    <use href="#hpBar" x="60" y="40" width="90" height="15"/>
  </g>
  <g color="#a78bfa" opacity="0.08">
    <use href="#hpBar" x="1780" y="1020" width="80" height="13"/>
  </g>

  <g stroke="#a78bfa" stroke-width="1" stroke-opacity="0.12" fill="none">
    <path d="M30 70 L30 30 L70 30"/>
    <path d="M1850 30 L1890 30 L1890 70"/>
    <path d="M30 1010 L30 1050 L70 1050"/>
    <path d="M1850 1050 L1890 1050 L1890 1010"/>
  </g>

  <g stroke="#8b5cf6" stroke-opacity="0.03" stroke-width="0.5">
    <line x1="0" y1="180" x2="1920" y2="180"/>
    <line x1="0" y1="540" x2="1920" y2="540"/>
    <line x1="0" y1="900" x2="1920" y2="900"/>
    <line x1="480" y1="0" x2="480" y2="1080"/>
    <line x1="960" y1="0" x2="960" y2="1080"/>
    <line x1="1440" y1="0" x2="1440" y2="1080"/>
  </g>

  <g fill="#c4b5fd">
    <circle cx="280" cy="420" r="0.8" fill-opacity="0.25"/>
    <circle cx="620" cy="220" r="0.8" fill-opacity="0.2"/>
    <circle cx="880" cy="640" r="0.8" fill-opacity="0.25"/>
    <circle cx="1220" cy="380" r="0.8" fill-opacity="0.2"/>
    <circle cx="1460" cy="820" r="0.8" fill-opacity="0.25"/>
    <circle cx="1700" cy="260" r="0.8" fill-opacity="0.2"/>
    <circle cx="420" cy="620" r="0.8" fill-opacity="0.2"/>
    <circle cx="1100" cy="200" r="0.8" fill-opacity="0.2"/>
    <circle cx="1560" cy="580" r="0.8" fill-opacity="0.2"/>
    <circle cx="140" cy="480" r="0.8" fill-opacity="0.2"/>
  </g>

  <radialGradient id="dashVignette" cx="50%" cy="50%" r="75%">
    <stop offset="65%" stop-color="#000" stop-opacity="0"/>
    <stop offset="100%" stop-color="#000" stop-opacity="0.35"/>
  </radialGradient>
  <rect width="1920" height="1080" fill="url(#dashVignette)"/>
</svg>
